<!-- Created with Inkscape (http://www.inkscape.org/) -->
<svg xmlns:rdf="http://www.w3.org/1999/02/22-rdf-syntax-ns#" xmlns="http://www.w3.org/2000/svg" version="1.1" xmlns:cc="http://creativecommons.org/ns#" xmlns:dc="http://purl.org/dc/elements/1.1/" viewBox="0 0 39.5591 40.7535">
 <metadata>
  <rdf:RDF>
   <cc:Work rdf:about="">
    <dc:format>image/svg+xml</dc:format>
    <dc:type rdf:resource="http://purl.org/dc/dcmitype/StillImage"/>
    <dc:title/>
   </cc:Work>
  </rdf:RDF>
 </metadata>
 <g fill-rule="nonzero" transform="translate(-265.93475,-743.41399)">
  <path d="m288.681,743.45c9.0625-0.55176,16.25,5.33203,16.7822,14.4434,0.60058,10.3662-7.65625,20.9912-18.4522,23.7402-3.73535,0.94239-7.23144,0.83497-10.2686-0.122-0.21973-4.0918,0.57617-8.3545,2.3291-11.333,2.85645-4.85351,7.18261-4.43847,9.6582,0.92285,0.93262,2.0166,1.46972,4.44824,1.62597,6.95313,0.86426-0.45899,1.70411-0.97657,2.50489-1.5332-2.67578-6.49414-3.87208-14.1846,5.71777-27.6904-2.78808-2.23144-7.0752-3.31543-12.4268-2.62695,0.79103-0.92285,1.63086-1.8457,2.5293-2.7539z" fill="#fff"/>
  <path d="m286.474,754.446c-0.77638,1.63087-0.46388,2.97364,0.69335,2.99805,1.15235,0.0195,2.71972-1.28906,3.4961-2.9248,0.77636-1.63086,0.46875-2.97364-0.68848-2.99805-1.15722-0.0195-2.72461,1.28906-3.50097,2.9248zm-0.78614-4.6289c-8.10548,9.93653-11.5478,22.8418-11.0644,34.3506-4.78516-1.91406-8.29103-6.52832-8.65723-12.3779v-0.0684c-0.60547-10.376,7.67089-21.0058,18.4814-23.7451,4.19923-1.05957,8.16406-0.77636,11.4746,0.57618-0.68847,1.96289-1.84082,4.20899-2.9834,5.90331-2.39257,3.55469-5.83007,5.7959-7.67577,5.00978-1.84083-0.79103-1.39649-4.31641,1.00097-7.87598,0.55175-0.82031,1.1621-1.57227,1.79688-2.23145-0.78125,0.10738-1.57228,0.25879-2.37305,0.45899z" fill="#fff"/>
 </g>
</svg>
